<svg width="25" height="24" viewBox="0 0 25 24" fill="none" xmlns="http://www.w3.org/2000/svg">
<rect x="0.5" width="24" height="24" rx="12" fill="#E24141"/>
<path d="M11.4746 17.44L11.6986 10.678H13.3506L13.5886 17.44H11.4746ZM12.4826 7.402C12.8373 7.402 13.1313 7.50933 13.3646 7.724C13.5886 7.948 13.7006 8.22333 13.7006 8.55C13.7006 8.87667 13.5886 9.14733 13.3646 9.362C13.1313 9.586 12.8373 9.698 12.4826 9.698C12.1373 9.698 11.8526 9.586 11.6286 9.362C11.4046 9.14733 11.2926 8.87667 11.2926 8.55C11.2926 8.22333 11.4046 7.948 11.6286 7.724C11.8526 7.50933 12.1373 7.402 12.4826 7.402Z" fill="#F5F5F5"/>
</svg>
