<svg width="24" height="24" viewBox="0 0 24 24" fill="none" xmlns="http://www.w3.org/2000/svg">
<rect x="0.4" y="0.4" width="23.2" height="23.2" rx="11.6" stroke="#656565" stroke-width="0.8"/>
<path d="M11.9135 8.028C12.7055 8.028 13.3455 8.252 13.8335 8.7C14.3215 9.148 14.5655 9.748 14.5655 10.5C14.5655 11.34 14.3055 11.964 13.7855 12.372C13.2655 12.772 12.5615 12.972 11.6735 12.972L11.6375 14.112H10.6895L10.6415 12.216H10.9895C11.7815 12.216 12.4015 12.096 12.8495 11.856C13.2975 11.616 13.5215 11.164 13.5215 10.5C13.5215 10.02 13.3775 9.64 13.0895 9.36C12.8015 9.08 12.4135 8.94 11.9255 8.94C11.4295 8.94 11.0375 9.076 10.7495 9.348C10.4695 9.612 10.3295 9.976 10.3295 10.44H9.29752C9.29752 9.96 9.40552 9.54 9.62152 9.18C9.83752 8.812 10.1415 8.528 10.5335 8.328C10.9335 8.128 11.3935 8.028 11.9135 8.028ZM11.1575 16.572C10.9495 16.572 10.7735 16.5 10.6295 16.356C10.4855 16.212 10.4135 16.036 10.4135 15.828C10.4135 15.62 10.4855 15.444 10.6295 15.3C10.7735 15.156 10.9495 15.084 11.1575 15.084C11.3575 15.084 11.5255 15.156 11.6615 15.3C11.8055 15.444 11.8775 15.62 11.8775 15.828C11.8775 16.036 11.8055 16.212 11.6615 16.356C11.5255 16.5 11.3575 16.572 11.1575 16.572Z" fill="#525252"/>
</svg>
