<svg width="24" height="24" viewBox="0 0 24 24" fill="none" xmlns="http://www.w3.org/2000/svg">
<path d="M17.3726 21.4158C16.258 22.4963 15.041 22.3257 13.8696 21.8139C12.6299 21.2907 11.4925 21.2679 10.1846 21.8139C8.54686 22.519 7.68248 22.3143 6.70438 21.4158C1.1542 15.695 1.97308 6.98305 8.2739 6.6646C9.80929 6.74421 10.8784 7.50622 11.7769 7.57446C13.1189 7.3015 14.4041 6.51674 15.8372 6.6191C17.5545 6.75558 18.8511 7.43798 19.7041 8.6663C16.1556 10.7931 16.9972 15.4675 20.25 16.7755C19.6017 18.4815 18.7601 20.1761 17.3612 21.4272L17.3726 21.4158ZM11.6631 6.59636C11.4925 4.06011 13.5511 1.96742 15.9168 1.7627C16.2466 4.69701 13.2554 6.88069 11.6631 6.59636Z" fill="#8F8F8F"/>
</svg>
