<svg width="24" height="24" viewBox="0 0 24 24" fill="none" xmlns="http://www.w3.org/2000/svg">
<path d="M6.50535 11.2501C6.46785 11.3063 6.3741 11.2688 6.3741 11.2126C6.2616 10.2001 5.9616 7.40634 3.9741 6.80634C3.3366 6.61884 2.6991 7.06884 2.6241 7.65009C2.49285 8.58759 3.5616 11.0063 3.46785 13.2188C3.4491 13.5751 2.8491 17.3438 4.44285 19.5751C6.0366 21.8063 9.8241 24.0751 13.5928 20.6251C15.5429 18.8438 15.5429 18.1313 17.9616 15.6376C18.4491 15.1501 20.3991 13.0126 20.9241 12.3563C21.6179 11.4751 20.5116 10.3126 19.6679 10.9126C19.2741 11.1938 15.7866 14.1188 15.6554 14.2501C15.3929 14.4751 15.0741 14.1563 15.2616 13.9313C17.3991 11.1188 19.4616 8.58759 20.0241 7.61259C20.5866 6.63759 19.2366 5.58759 18.4491 6.43134C17.9053 6.99384 13.8741 11.7001 13.6866 11.9063C13.4991 12.1126 13.1804 11.8501 13.2929 11.5876C13.4241 11.3438 16.6866 5.66259 17.2678 4.36884C17.7741 3.22509 16.0866 2.15634 15.2991 3.33759C14.6616 4.27509 11.0991 10.2001 10.9678 10.4063C10.7991 10.7063 10.4241 10.5188 10.5741 10.1813C10.6866 9.93759 12.8804 3.93759 13.0491 3.31884C13.3491 2.23134 11.7928 1.33134 11.0616 2.56884C10.0679 4.27509 8.0991 9.48759 6.50535 11.2501Z" fill="#FFCA28"/>
<mask id="mask0_1228_2953" style="mask-type:luminance" maskUnits="userSpaceOnUse" x="2" y="1" width="20" height="22">
<path d="M6.50535 11.2501C6.46785 11.3063 6.3741 11.2688 6.3741 11.2126C6.2616 10.2001 5.9616 7.40634 3.9741 6.80634C3.3366 6.61884 2.6991 7.06884 2.6241 7.65009C2.49285 8.58759 3.5616 11.0063 3.46785 13.2188C3.4491 13.5751 2.8491 17.3438 4.44285 19.5751C6.0366 21.8063 9.8241 24.0751 13.5928 20.6251C15.5429 18.8438 15.5429 18.1313 17.9616 15.6376C18.4491 15.1501 20.3991 13.0126 20.9241 12.3563C21.6179 11.4751 20.5116 10.3126 19.6679 10.9126C19.2741 11.1938 15.7866 14.1188 15.6554 14.2501C15.3929 14.4751 15.0741 14.1563 15.2616 13.9313C17.3991 11.1188 19.4616 8.58759 20.0241 7.61259C20.5866 6.63759 19.2366 5.58759 18.4491 6.43134C17.9053 6.99384 13.8741 11.7001 13.6866 11.9063C13.4991 12.1126 13.1804 11.8501 13.2929 11.5876C13.4241 11.3438 16.6866 5.66259 17.2678 4.36884C17.7741 3.22509 16.0866 2.15634 15.2991 3.33759C14.6616 4.27509 11.0991 10.2001 10.9678 10.4063C10.7991 10.7063 10.4241 10.5188 10.5741 10.1813C10.6866 9.93759 12.8804 3.93759 13.0491 3.31884C13.3491 2.23134 11.7928 1.33134 11.0616 2.56884C10.0679 4.27509 8.0991 9.48759 6.50535 11.2501Z" fill="white"/>
</mask>
<g mask="url(#mask0_1228_2953)">
<path d="M6.8994 11.2875C9.2244 13.1812 10.2556 15.8812 8.34315 18.6937C8.1744 18.9375 7.81815 18.7125 7.96815 18.4312C8.75565 17.025 9.3369 14.4937 6.61815 11.85C6.2994 12 5.9244 11.6812 5.90565 11.4C5.6994 9.63749 5.49315 8.17499 4.18065 7.34999C3.6744 7.03124 3.01815 7.25624 2.98065 8.02499C2.98065 8.02499 2.56815 8.06249 2.3994 8.08124C2.30565 7.68749 2.11815 6.97499 2.11815 6.95624C2.11815 6.93749 4.33065 6.11249 4.33065 6.11249L6.2619 8.02499L6.8994 11.2875ZM10.6494 10.5187C10.3869 10.3875 10.1619 10.1812 10.2744 9.89999C10.3869 9.59999 12.4681 3.93749 12.5994 3.50624C12.8619 2.71874 12.2056 2.09999 11.6244 2.36249C11.3056 2.51249 11.1556 2.00624 11.3244 1.93124C11.4931 1.85624 11.8869 1.49999 12.6744 1.89374C14.0806 2.60624 13.2556 4.18124 12.8806 5.09999C12.5056 6.01874 10.6494 10.5187 10.6494 10.5187ZM13.3681 11.925C13.0494 11.7 12.8056 11.5125 13.0869 11.0625C13.2744 10.7625 16.4431 5.00624 16.7619 4.44374C17.2306 3.63749 16.2556 2.92499 15.7119 3.43124C15.4681 3.65624 15.0931 3.16874 15.2806 2.98124C15.4681 2.79374 16.1244 2.24999 16.9494 2.79374C17.7744 3.33749 17.7931 3.99374 17.6806 4.27499C17.5869 4.55624 13.3681 11.925 13.3681 11.925ZM15.2431 14.2312C15.0181 13.8937 14.8681 13.725 15.1869 13.2937C15.5056 12.8625 19.2931 7.91249 19.4994 7.63124C20.0244 6.93749 19.2556 6.33749 18.8806 6.54374C18.5244 6.74999 18.3181 6.16874 18.6181 6.01874C18.9181 5.86874 19.4056 5.69999 19.8556 6.01874C20.3056 6.33749 20.5681 6.99374 20.4931 7.36874C20.4369 7.74374 15.2431 14.2312 15.2431 14.2312Z" fill="#FAA700"/>
<path d="M6.5993 21.2999C9.6368 22.7437 11.9056 21.6187 13.3681 20.1937C15.0368 18.5624 15.8243 17.0624 16.9306 16.0499C17.3056 15.6937 20.2681 12.5437 20.6243 11.9999C20.9056 11.5499 20.3431 10.7812 19.7243 11.2124C19.3306 11.4749 19.1431 10.9124 19.4056 10.7624C19.6681 10.6124 20.2493 10.2937 20.8681 10.7624C21.4868 11.2124 21.5056 12.0187 21.3556 12.2812C21.2056 12.5437 12.0931 23.0062 12.0931 23.0062L8.38055 22.9124L6.39305 21.6937L6.5993 21.2999Z" fill="#FAA700"/>
</g>
<mask id="mask1_1228_2953" style="mask-type:luminance" maskUnits="userSpaceOnUse" x="2" y="1" width="20" height="22">
<path d="M6.50535 11.2501C6.46785 11.3063 6.3741 11.2688 6.3741 11.2126C6.2616 10.2001 5.9616 7.40634 3.9741 6.80634C3.3366 6.61884 2.6991 7.06884 2.6241 7.65009C2.49285 8.58759 3.5616 11.0063 3.46785 13.2188C3.4491 13.5751 2.8491 17.3438 4.44285 19.5751C6.0366 21.8063 9.8241 24.0751 13.5928 20.6251C15.5429 18.8438 15.5429 18.1313 17.9616 15.6376C18.4491 15.1501 20.3991 13.0126 20.9241 12.3563C21.6179 11.4751 20.5116 10.3126 19.6679 10.9126C19.2741 11.1938 15.7866 14.1188 15.6554 14.2501C15.3929 14.4751 15.0741 14.1563 15.2616 13.9313C17.3991 11.1188 19.4616 8.58759 20.0241 7.61259C20.5866 6.63759 19.2366 5.58759 18.4491 6.43134C17.9053 6.99384 13.8741 11.7001 13.6866 11.9063C13.4991 12.1126 13.1804 11.8501 13.2929 11.5876C13.4241 11.3438 16.6866 5.66259 17.2678 4.36884C17.7741 3.22509 16.0866 2.15634 15.2991 3.33759C14.6616 4.27509 11.0991 10.2001 10.9678 10.4063C10.7991 10.7063 10.4241 10.5188 10.5741 10.1813C10.6866 9.93759 12.8804 3.93759 13.0491 3.31884C13.3491 2.23134 11.7928 1.33134 11.0616 2.56884C10.0679 4.27509 8.0991 9.48759 6.50535 11.2501Z" fill="white"/>
</mask>
<g mask="url(#mask1_1228_2953)">
<path d="M3.09233 6.7501C2.99858 6.99385 2.88608 7.4251 2.99858 8.00635C3.42983 10.1813 4.14233 11.4563 3.91733 13.8001C3.50483 18.3001 5.07983 21.7126 10.4986 22.3876C11.0423 22.4626 10.8923 22.8751 10.6111 22.8376C10.4798 22.8188 6.61733 22.1251 6.61733 22.1251C6.61733 22.1251 3.03608 19.0688 3.03608 19.0313C3.03608 18.9938 2.13608 7.33135 2.13608 7.33135L3.09233 6.7501ZM12.4673 1.96885C12.2236 2.00635 11.6986 2.2126 11.3236 2.94385C10.9486 3.6751 9.11108 7.89385 8.86733 8.34385C8.62358 8.79385 7.62983 11.0251 6.82358 11.7001C6.56108 11.9063 6.42983 11.5501 6.42983 11.5501L6.41108 10.9688L10.7611 1.06885L12.2048 1.1251L12.4673 1.96885ZM10.6486 10.5188C11.0048 10.6876 11.2673 10.8376 11.5298 10.4251C11.6986 10.1251 13.5173 7.0126 15.8048 3.3751C15.9923 3.09385 16.4236 2.8501 16.7611 2.98135C17.0986 3.13135 17.1736 2.7001 17.0048 2.60635C16.8361 2.5126 15.7861 1.93135 15.0736 3.13135C14.3611 4.33135 10.6486 10.5188 10.6486 10.5188ZM13.3673 11.9251C13.6486 12.1313 13.9298 12.3938 14.2861 11.9626C14.6236 11.5501 18.4673 6.9751 18.6923 6.69385C18.9173 6.4126 19.3861 6.16885 19.7423 6.39385C19.9861 6.54385 20.2111 6.09385 20.0611 5.98135C19.9111 5.86885 19.0673 5.11885 18.5048 5.75635C17.9423 6.39385 13.3673 11.9251 13.3673 11.9251ZM15.2423 14.2313C15.4861 14.4938 15.7486 14.6438 16.1048 14.3813C16.4611 14.1188 19.6486 11.4376 19.8548 11.2501C20.0611 11.0626 20.6611 10.7813 21.1111 11.2313C21.2798 11.4001 21.5798 11.1188 21.4111 10.9501C21.2423 10.7626 20.3236 9.8251 19.5923 10.4438C18.8611 11.0626 15.2423 14.2313 15.2423 14.2313Z" fill="#B55E19"/>
</g>
<path d="M22.0116 15.2437C21.4303 16.9687 20.5491 18.0374 19.1053 19.0124C18.8428 19.1999 18.9928 19.5749 19.2928 19.4437C20.6428 18.8999 22.1428 17.6999 22.4991 15.3187C22.5553 14.9999 22.1053 14.9437 22.0116 15.2437ZM20.8866 14.2124C20.3053 15.9374 19.4241 17.0062 17.9803 17.9812C17.7178 18.1687 17.8678 18.5437 18.1678 18.4124C19.5178 17.8687 21.0178 16.6687 21.3741 14.2874C21.4116 13.9687 20.9803 13.9124 20.8866 14.2124ZM6.46781 6.48743C6.91781 4.72493 7.74281 3.59994 9.11156 2.54994C9.37406 2.36244 9.18656 1.98744 8.88656 2.11869C7.57406 2.73744 6.14906 4.04994 5.96156 6.44994C5.94281 6.76869 6.39281 6.80618 6.46781 6.48743ZM5.24906 5.58743C5.69906 3.82493 6.52406 2.69994 7.89281 1.64994C8.15531 1.46244 7.96781 1.08744 7.66781 1.21869C6.35531 1.83744 4.93031 3.14994 4.74281 5.54994C4.72406 5.84994 5.15531 5.88743 5.24906 5.58743Z" fill="#B0BEC5"/>
</svg>
